<?xml version="1.0" encoding="UTF-8"?>
<svg id="Layer_1" xmlns="http://www.w3.org/2000/svg" xmlns:xlink="http://www.w3.org/1999/xlink" version="1.1" viewBox="0 0 300 70">
  <!-- Generator: Adobe Illustrator 30.1.0, SVG Export Plug-In . SVG Version: 2.1.1 Build 136)  -->
  <defs>
    <style>
      .st0 {
        fill: #003659;
      }

      .st1 {
        fill: url(#linear-gradient9);
        opacity: .56;
      }

      .st2 {
        fill: url(#linear-gradient8);
        opacity: .5;
      }

      .st3 {
        fill: url(#linear-gradient3);
        opacity: .19;
      }

      .st4 {
        fill: url(#linear-gradient7);
        opacity: .44;
      }

      .st5 {
        fill: url(#linear-gradient6);
        opacity: .38;
      }

      .st6 {
        fill: url(#linear-gradient2);
        opacity: .12;
      }

      .st7 {
        fill: url(#linear-gradient5);
        opacity: .31;
      }

      .st8 {
        fill: url(#linear-gradient4);
        opacity: .25;
      }

      .st9 {
        fill: url(#linear-gradient1);
        opacity: .06;
      }

      .st10 {
        fill: url(#linear-gradient16);
      }

      .st11 {
        fill: url(#linear-gradient17);
      }

      .st12 {
        fill: url(#linear-gradient);
        opacity: 0;
      }

      .st13 {
        fill: url(#linear-gradient11);
        opacity: .69;
      }

      .st14 {
        fill: url(#linear-gradient15);
        opacity: .94;
      }

      .st15 {
        fill: url(#linear-gradient10);
        opacity: .62;
      }

      .st16 {
        fill: url(#linear-gradient14);
        opacity: .88;
      }

      .st17 {
        fill: url(#linear-gradient13);
        opacity: .81;
      }

      .st18 {
        fill: url(#linear-gradient12);
        opacity: .75;
      }

      .st19 {
        fill: none;
        stroke: #e3530f;
        stroke-miterlimit: 10;
      }

      .st20 {
        fill: #e3530f;
        fill-rule: evenodd;
      }
    </style>
    <linearGradient id="linear-gradient" x1="115" y1="35" x2="185" y2="35" gradientUnits="userSpaceOnUse">
      <stop offset="0" stop-color="#fff"/>
      <stop offset=".26" stop-color="#fbfbfb"/>
      <stop offset=".51" stop-color="#eff1f2"/>
      <stop offset=".75" stop-color="#dcdfe2"/>
      <stop offset=".99" stop-color="#c1c7cb"/>
      <stop offset="1" stop-color="#c0c7cb"/>
    </linearGradient>
    <linearGradient id="linear-gradient1" x1="115.85" y1="33.32" x2="184.17" y2="36.68" gradientUnits="userSpaceOnUse">
      <stop offset="0" stop-color="#fff"/>
      <stop offset=".26" stop-color="#fbfbfb"/>
      <stop offset=".51" stop-color="#eff1f2"/>
      <stop offset=".75" stop-color="#dbdfe2"/>
      <stop offset=".99" stop-color="#c0c7cb"/>
      <stop offset="1" stop-color="#c0c7cb"/>
    </linearGradient>
    <linearGradient id="linear-gradient2" x1="116.78" y1="31.73" x2="183.26" y2="38.28" gradientUnits="userSpaceOnUse">
      <stop offset="0" stop-color="#fff"/>
      <stop offset=".26" stop-color="#fbfbfb"/>
      <stop offset=".51" stop-color="#eff1f2"/>
      <stop offset=".75" stop-color="#dbdfe1"/>
      <stop offset="1" stop-color="#c0c7cb"/>
      <stop offset="1" stop-color="#c0c7cb"/>
    </linearGradient>
    <linearGradient id="linear-gradient3" x1="117.77" y1="30.22" x2="182.29" y2="39.79" gradientUnits="userSpaceOnUse">
      <stop offset="0" stop-color="#fff"/>
      <stop offset=".26" stop-color="#fbfbfb"/>
      <stop offset=".51" stop-color="#eff1f2"/>
      <stop offset=".75" stop-color="#dbdfe1"/>
      <stop offset="1" stop-color="#c0c7cb"/>
      <stop offset="1" stop-color="#c0c7cb"/>
    </linearGradient>
    <linearGradient id="linear-gradient4" x1="118.82" y1="28.8" x2="181.26" y2="41.22" gradientUnits="userSpaceOnUse">
      <stop offset="0" stop-color="#fff"/>
      <stop offset=".25" stop-color="#fbfbfb"/>
      <stop offset=".5" stop-color="#eff0f1"/>
      <stop offset=".75" stop-color="#dbdfe1"/>
      <stop offset="1" stop-color="#c0c7cb"/>
    </linearGradient>
    <linearGradient id="linear-gradient5" x1="119.92" y1="27.47" x2="180.17" y2="42.56" gradientUnits="userSpaceOnUse">
      <stop offset="0" stop-color="#fff"/>
      <stop offset=".25" stop-color="#fbfbfb"/>
      <stop offset=".5" stop-color="#eff0f1"/>
      <stop offset=".75" stop-color="#dbdfe1"/>
      <stop offset="1" stop-color="#c0c7cb"/>
    </linearGradient>
    <linearGradient id="linear-gradient6" x1="121.07" y1="26.23" x2="179.04" y2="43.81" gradientUnits="userSpaceOnUse">
      <stop offset="0" stop-color="#fff"/>
      <stop offset=".25" stop-color="#fbfbfb"/>
      <stop offset=".5" stop-color="#eff0f1"/>
      <stop offset=".75" stop-color="#dbdfe1"/>
      <stop offset="1" stop-color="#c0c7cb"/>
    </linearGradient>
    <linearGradient id="linear-gradient7" x1="122.27" y1="25.08" x2="177.86" y2="44.97" gradientUnits="userSpaceOnUse">
      <stop offset="0" stop-color="#fff"/>
      <stop offset=".25" stop-color="#fbfbfb"/>
      <stop offset=".5" stop-color="#eef0f1"/>
      <stop offset=".76" stop-color="#dbdfe1"/>
      <stop offset="1" stop-color="#c0c7cb"/>
    </linearGradient>
    <linearGradient id="linear-gradient8" x1="123.5" y1="24.02" x2="176.64" y2="46.04" gradientUnits="userSpaceOnUse">
      <stop offset="0" stop-color="#fff"/>
      <stop offset=".25" stop-color="#fafbfb"/>
      <stop offset=".5" stop-color="#eef0f1"/>
      <stop offset=".76" stop-color="#dadee1"/>
      <stop offset="1" stop-color="#c0c7cb"/>
    </linearGradient>
    <linearGradient id="linear-gradient9" x1="124.76" y1="23.06" x2="175.39" y2="47.01" gradientUnits="userSpaceOnUse">
      <stop offset="0" stop-color="#fff"/>
      <stop offset=".25" stop-color="#fafbfb"/>
      <stop offset=".5" stop-color="#eef0f1"/>
      <stop offset=".76" stop-color="#dadee1"/>
      <stop offset="1" stop-color="#c0c7cb"/>
    </linearGradient>
    <linearGradient id="linear-gradient10" x1="126.04" y1="22.19" x2="174.12" y2="47.89" gradientUnits="userSpaceOnUse">
      <stop offset="0" stop-color="#fff"/>
      <stop offset=".25" stop-color="#fafbfb"/>
      <stop offset=".5" stop-color="#eef0f1"/>
      <stop offset=".76" stop-color="#dadee0"/>
      <stop offset="1" stop-color="#c0c7cb"/>
    </linearGradient>
    <linearGradient id="linear-gradient11" x1="127.34" y1="21.42" x2="172.83" y2="48.68" gradientUnits="userSpaceOnUse">
      <stop offset="0" stop-color="#fff"/>
      <stop offset=".25" stop-color="#fafbfb"/>
      <stop offset=".5" stop-color="#eef0f1"/>
      <stop offset=".76" stop-color="#dadee0"/>
      <stop offset="1" stop-color="#c0c7cb"/>
    </linearGradient>
    <linearGradient id="linear-gradient12" x1="128.65" y1="20.73" x2="171.53" y2="49.38" gradientUnits="userSpaceOnUse">
      <stop offset="0" stop-color="#fff"/>
      <stop offset=".25" stop-color="#fafbfb"/>
      <stop offset=".5" stop-color="#eef0f1"/>
      <stop offset=".76" stop-color="#dadee0"/>
      <stop offset="1" stop-color="#c0c7cb"/>
    </linearGradient>
    <linearGradient id="linear-gradient13" x1="129.96" y1="20.14" x2="170.21" y2="49.99" gradientUnits="userSpaceOnUse">
      <stop offset="0" stop-color="#fff"/>
      <stop offset=".25" stop-color="#fafbfb"/>
      <stop offset=".5" stop-color="#eef0f1"/>
      <stop offset=".76" stop-color="#dadee0"/>
      <stop offset="1" stop-color="#c0c7cb"/>
    </linearGradient>
    <linearGradient id="linear-gradient14" x1="131.28" y1="19.63" x2="168.9" y2="50.51" gradientUnits="userSpaceOnUse">
      <stop offset="0" stop-color="#fff"/>
      <stop offset=".25" stop-color="#fafbfb"/>
      <stop offset=".5" stop-color="#eef0f1"/>
      <stop offset=".76" stop-color="#d9dde0"/>
      <stop offset="1" stop-color="#c0c7cb"/>
    </linearGradient>
    <linearGradient id="linear-gradient15" x1="132.59" y1="19.22" x2="167.59" y2="50.94" gradientUnits="userSpaceOnUse">
      <stop offset="0" stop-color="#fff"/>
      <stop offset=".25" stop-color="#fafbfb"/>
      <stop offset=".5" stop-color="#eef0f1"/>
      <stop offset=".76" stop-color="#d9dde0"/>
      <stop offset="1" stop-color="#c0c7cb"/>
    </linearGradient>
    <linearGradient id="linear-gradient16" x1="133.89" y1="18.89" x2="166.29" y2="51.29" gradientUnits="userSpaceOnUse">
      <stop offset="0" stop-color="#fff"/>
      <stop offset=".25" stop-color="#fafbfb"/>
      <stop offset=".5" stop-color="#eef0f1"/>
      <stop offset=".76" stop-color="#d9dde0"/>
      <stop offset="1" stop-color="#c0c7cb"/>
    </linearGradient>
    <linearGradient id="linear-gradient17" x1="122.95" y1="34.6" x2="178.48" y2="34.6" gradientUnits="userSpaceOnUse">
      <stop offset="0" stop-color="#d3d6dd"/>
      <stop offset="1" stop-color="#fff"/>
    </linearGradient>
  </defs>
  <g>
    <path class="st12" d="M185,35c0-19.33-15.67-35-35-35s-35,15.67-35,35,15.67,35,35,35,35-15.67,35-35Z"/>
    <path class="st9" d="M184.37,35c0-18.98-15.39-34.37-34.37-34.37s-34.37,15.39-34.37,34.37,15.39,34.37,34.37,34.37,34.37-15.39,34.37-34.37Z"/>
    <path class="st6" d="M183.74,35c0-18.63-15.1-33.74-33.74-33.74s-33.74,15.11-33.74,33.74,15.1,33.74,33.74,33.74,33.74-15.1,33.74-33.74Z"/>
    <path class="st3" d="M183.11,35c0-18.28-14.82-33.11-33.11-33.11s-33.11,14.82-33.11,33.11,14.82,33.11,33.11,33.11,33.11-14.82,33.11-33.11Z"/>
    <path class="st8" d="M182.48,35c0-17.94-14.54-32.48-32.48-32.48s-32.48,14.54-32.48,32.48,14.54,32.48,32.48,32.48,32.48-14.54,32.48-32.48Z"/>
    <path class="st7" d="M181.85,35c0-17.59-14.26-31.85-31.85-31.85s-31.85,14.26-31.85,31.85,14.26,31.85,31.85,31.85,31.85-14.26,31.85-31.85Z"/>
    <path class="st5" d="M181.22,35c0-17.24-13.98-31.22-31.22-31.22s-31.22,13.98-31.22,31.22,13.98,31.22,31.22,31.22,31.22-13.98,31.22-31.22Z"/>
    <path class="st4" d="M180.59,35c0-16.89-13.69-30.59-30.58-30.59s-30.59,13.69-30.59,30.59,13.69,30.59,30.59,30.59,30.58-13.69,30.58-30.59Z"/>
    <path class="st2" d="M179.96,35c0-16.54-13.41-29.96-29.95-29.96s-29.96,13.41-29.96,29.96,13.41,29.96,29.96,29.96,29.95-13.41,29.95-29.96Z"/>
    <path class="st1" d="M179.32,35c0-16.2-13.13-29.33-29.32-29.33s-29.33,13.13-29.33,29.33,13.13,29.33,29.33,29.33,29.32-13.13,29.32-29.33Z"/>
    <path class="st15" d="M178.69,35c0-15.85-12.85-28.69-28.69-28.69s-28.7,12.85-28.7,28.69,12.85,28.69,28.7,28.69,28.69-12.85,28.69-28.69Z"/>
    <path class="st13" d="M178.06,35c0-15.5-12.56-28.06-28.06-28.06s-28.06,12.57-28.06,28.06,12.56,28.06,28.06,28.06,28.06-12.56,28.06-28.06Z"/>
    <path class="st18" d="M177.43,35c0-15.15-12.28-27.43-27.43-27.43s-27.43,12.28-27.43,27.43,12.28,27.43,27.43,27.43,27.43-12.28,27.43-27.43Z"/>
    <path class="st17" d="M176.8,35c0-14.8-12-26.8-26.8-26.8s-26.8,12-26.8,26.8,12,26.8,26.8,26.8,26.8-12,26.8-26.8Z"/>
    <path class="st16" d="M176.17,35c0-14.45-11.72-26.17-26.17-26.17s-26.17,11.72-26.17,26.17,11.72,26.17,26.17,26.17,26.17-11.72,26.17-26.17Z"/>
    <path class="st14" d="M175.54,35c0-14.11-11.44-25.54-25.54-25.54s-25.54,11.44-25.54,25.54,11.44,25.54,25.54,25.54,25.54-11.44,25.54-25.54Z"/>
    <path class="st10" d="M174.91,35c0-13.76-11.15-24.91-24.91-24.91s-24.91,11.15-24.91,24.91,11.15,24.91,24.91,24.91,24.91-11.15,24.91-24.91Z"/>
  </g>
  <path class="st11" d="M178.48,34.6c0,12.85-8.73,23.66-20.58,26.82-2.29.61-4.7.94-7.19.94-1.96,0-3.86-.2-5.71-.59-12.6-2.63-22.06-13.8-22.06-27.17,0-15.33,12.43-27.76,27.76-27.76s27.76,12.43,27.76,27.76Z"/>
  <path class="st19" d="M172.7,44.47c5.45-12.14.02-26.41-12.13-31.86-12.14-5.45-26.41-.02-31.86,12.13-5.45,12.14-.02,26.41,12.13,31.86,12.14,5.45,26.41.02,31.86-12.13Z"/>
  <polygon class="st0" points="150.75 21.02 142 25.37 142 29.47 150.73 28.23 150.85 21.07 150.75 21.02"/>
  <polygon class="st20" points="163.35 30.75 163.35 27.45 150.83 21.07 150.72 28.23 150.94 28.2 163.35 30.75"/>
  <polygon class="st20" points="150.58 37.04 159.43 37.04 159.43 32.31 150.66 30.79 150.56 37.04 150.58 37.04"/>
  <polygon class="st0" points="138.08 33.14 138.08 35.83 150.57 37.03 150.68 30.79 150.42 30.75 138.08 33.14"/>
  <polygon class="st20" points="163.35 41.37 163.35 38.5 150.56 40.61 150.51 40.6 150.4 47.44 163.35 41.37"/>
  <polygon class="st0" points="142 43.42 150.29 47.5 150.41 47.44 150.54 40.6 142 39.57 142 43.42"/>
</svg>