<?xml version="1.0" encoding="UTF-8"?>
<svg id="Layer_1" xmlns="http://www.w3.org/2000/svg" xmlns:xlink="http://www.w3.org/1999/xlink" version="1.1" viewBox="0 0 870 300">
  <!-- Generator: Adobe Illustrator 30.1.0, SVG Export Plug-In . SVG Version: 2.1.1 Build 136)  -->
  <defs>
    <style>
      .st0 {
        fill: #003659;
      }

      .st1 {
        fill: none;
        stroke: #e3530f;
        stroke-miterlimit: 10;
        stroke-width: 4px;
      }

      .st2 {
        fill: url(#linear-gradient);
      }

      .st3 {
        fill: #e3530f;
        fill-rule: evenodd;
      }
    </style>
    <linearGradient id="linear-gradient" x1="285.48" y1="150" x2="585.47" y2="150" gradientUnits="userSpaceOnUse">
      <stop offset="0" stop-color="#d3d6dd"/>
      <stop offset="1" stop-color="#fff"/>
    </linearGradient>
  </defs>
  <path class="st2" d="M585.47,150c0,69.42-47.16,127.82-111.17,144.92-12.38,3.31-25.4,5.08-38.82,5.08-10.58,0-20.87-1.09-30.83-3.18-68.05-14.2-119.17-74.54-119.17-146.82C285.48,67.17,352.64,0,435.48,0s149.99,67.17,149.99,150Z"/>
  <path class="st1" d="M554.28,203.3c29.44-65.61.11-142.67-65.51-172.11-65.61-29.44-142.67-.11-172.11,65.51-29.44,65.61-.11,142.67,65.51,172.11,65.61,29.44,142.67.11,172.11-65.51Z"/>
  <polygon class="st0" points="435.68 76.61 388.4 100.09 388.4 122.28 435.59 115.59 436.22 76.89 435.68 76.61"/>
  <polygon class="st3" points="503.72 129.17 503.72 111.37 436.11 76.89 435.49 115.59 436.67 115.42 503.72 129.17"/>
  <polygon class="st3" points="434.76 163.16 482.55 163.16 482.55 137.6 435.16 129.41 434.67 163.14 434.76 163.16"/>
  <polygon class="st0" points="367.22 142.11 367.22 156.63 434.73 163.12 435.28 129.41 433.89 129.17 367.22 142.11"/>
  <polygon class="st3" points="503.72 186.53 503.72 171.07 434.66 182.44 434.39 182.4 433.76 219.33 503.72 186.53"/>
  <polygon class="st0" points="388.4 197.64 433.16 219.67 433.85 219.33 434.51 182.4 388.4 176.83 388.4 197.64"/>
</svg>